<?xml version="1.0" encoding="iso-8859-1"?>
<!-- Uploaded to: SVG Repo, www.svgrepo.com, Generator: SVG Repo Mixer Tools -->
<svg fill="#000000" height="800px" width="800px" version="1.1" id="Layer_1" xmlns="http://www.w3.org/2000/svg" xmlns:xlink="http://www.w3.org/1999/xlink" 
	 viewBox="0 0 512 512" xml:space="preserve">
<g>
	<g>
		<path d="M415.964,74.514c-29.154,0-57.365-6.765-77.397-18.56c-16.472-9.699-25.92-21.849-25.92-33.334v-0.887
			C312.647,9.731,302.916,0,290.914,0c-12.002,0-21.733,9.731-21.733,21.733V300.86c-20.6-16.988-46.982-27.204-75.706-27.204
			c-65.712,0-119.172,53.46-119.172,119.172S127.763,512,193.475,512s119.172-53.46,119.172-119.172c0-0.217-0.014-0.43-0.016-0.648
			c0.001-0.11,0.016-0.216,0.016-0.325V90.947c26.335,16.8,62.645,27.031,103.317,27.031c12.002,0,21.733-9.731,21.733-21.733
			S427.967,74.514,415.964,74.514z M193.476,468.534c-41.745,0-75.706-33.961-75.706-75.706c0-41.745,33.961-75.706,75.706-75.706
			s75.706,33.961,75.706,75.706C269.182,434.573,235.22,468.534,193.476,468.534z"/>
	</g>
</g>
</svg>