<svg xmlns="http://www.w3.org/2000/svg" xmlns:xlink="http://www.w3.org/1999/xlink" width="500" zoomAndPan="magnify" viewBox="0 0 375 374.999991" height="500" preserveAspectRatio="xMidYMid meet" version="1.2"><defs/><g id="951dad813b"><g style="fill:#fff;fill-opacity:1;"><g transform="translate(51.67916, 255.555997)"><path style="stroke:none" d="M 69.34375 -33.0625 C 69.34375 -33.0625 69.875 -32.929688 70.9375 -32.671875 C 70.8125 -32.003906 70.75 -31.269531 70.75 -30.46875 C 70.75 -29.664062 70.613281 -28.925781 70.34375 -28.25 C 69.40625 -26.78125 68.4375 -25.273438 67.4375 -23.734375 C 66.4375 -22.203125 65.332031 -20.769531 64.125 -19.4375 C 57.050781 -11.820312 48.90625 -5.8125 39.6875 -1.40625 C 35.675781 0.46875 31.566406 1.535156 27.359375 1.796875 C 23.148438 2.066406 18.90625 1.601562 14.625 0.40625 C 9.28125 -1.0625 5.238281 -3.867188 2.5 -8.015625 C -0.238281 -12.160156 -1.40625 -17.304688 -1 -23.453125 C -0.601562 -30.398438 0.894531 -36.773438 3.5 -42.578125 C 6.113281 -48.390625 9.691406 -53.632812 14.234375 -58.3125 C 19.972656 -64.332031 26.519531 -65.601562 33.875 -62.125 C 36.8125 -60.789062 38.78125 -58.785156 39.78125 -56.109375 C 40.78125 -53.441406 40.613281 -50.503906 39.28125 -47.296875 C 38.613281 -45.421875 37.710938 -43.648438 36.578125 -41.984375 C 35.441406 -40.316406 34.269531 -38.75 33.0625 -37.28125 C 27.582031 -31 20.769531 -26.253906 12.625 -23.046875 C 12.09375 -20.503906 12.09375 -18.234375 12.625 -16.234375 C 13.15625 -14.234375 13.890625 -12.363281 14.828125 -10.625 C 16.035156 -8.613281 17.4375 -7.070312 19.03125 -6 C 20.632812 -4.9375 22.570312 -4.539062 24.84375 -4.8125 C 26.71875 -5.070312 28.65625 -5.4375 30.65625 -5.90625 C 32.664062 -6.375 34.539062 -7.007812 36.28125 -7.8125 C 41.75 -10.21875 46.921875 -13.191406 51.796875 -16.734375 C 56.679688 -20.273438 61.125 -24.453125 65.125 -29.265625 C 65.800781 -29.929688 66.503906 -30.5625 67.234375 -31.15625 C 67.972656 -31.757812 68.675781 -32.394531 69.34375 -33.0625 Z M 26.65625 -55.109375 C 23.3125 -52.703125 20.703125 -49.796875 18.828125 -46.390625 C 16.960938 -42.984375 15.5625 -38.539062 14.625 -33.0625 C 17.4375 -35.070312 19.773438 -37.273438 21.640625 -39.671875 C 23.515625 -42.078125 25.1875 -44.753906 26.65625 -47.703125 C 27.1875 -48.765625 27.550781 -49.929688 27.75 -51.203125 C 27.957031 -52.472656 27.59375 -53.773438 26.65625 -55.109375 Z M 26.65625 -55.109375 "/></g></g><g style="fill:#fff;fill-opacity:1;"><g transform="translate(108.593196, 255.555997)"><path style="stroke:none" d="M 19.234375 -48.09375 C 17.097656 -41.007812 15.191406 -33.925781 13.515625 -26.84375 C 11.847656 -19.769531 10.613281 -12.554688 9.8125 -5.203125 C 9.550781 -2.265625 9.453125 0.632812 9.515625 3.5 C 9.585938 6.375 10.023438 9.21875 10.828125 12.03125 C 11.890625 15.363281 13.351562 17.597656 15.21875 18.734375 C 17.09375 19.867188 19.769531 19.96875 23.25 19.03125 C 24.851562 18.5 26.421875 17.898438 27.953125 17.234375 C 29.492188 16.566406 31 15.832031 32.46875 15.03125 C 36.34375 12.757812 39.914062 10.15625 43.1875 7.21875 C 46.457031 4.28125 49.429688 1.003906 52.109375 -2.609375 C 52.910156 -3.671875 53.742188 -4.769531 54.609375 -5.90625 C 55.472656 -7.039062 56.375 -8.078125 57.3125 -9.015625 C 59.050781 -10.890625 60.921875 -11.023438 62.921875 -9.421875 C 63.054688 -8.890625 63.125 -8.554688 63.125 -8.421875 C 59.113281 0.535156 53.769531 7.953125 47.09375 13.828125 C 40.414062 19.703125 32.066406 23.578125 22.046875 25.453125 C 20.304688 25.722656 18.5 25.820312 16.625 25.75 C 14.757812 25.6875 12.957031 25.453125 11.21875 25.046875 C 0.9375 23.179688 -4.601562 17.238281 -5.40625 7.21875 C -5.539062 3.875 -5.539062 0.5 -5.40625 -2.90625 C -5.269531 -6.3125 -5.003906 -9.617188 -4.609375 -12.828125 C -3.535156 -21.242188 -1.800781 -29.457031 0.59375 -37.46875 C 3 -45.488281 5.609375 -53.507812 8.421875 -61.53125 C 15.492188 -81.96875 23.039062 -102.238281 31.0625 -122.34375 C 39.082031 -142.457031 47.898438 -162.265625 57.515625 -181.765625 C 59.921875 -186.710938 62.660156 -191.457031 65.734375 -196 C 66.804688 -197.738281 68.175781 -199.039062 69.84375 -199.90625 C 71.507812 -200.769531 73.546875 -200.738281 75.953125 -199.8125 C 75.816406 -199.269531 75.75 -198.734375 75.75 -198.203125 C 75.75 -197.671875 75.679688 -197.269531 75.546875 -197 C 72.878906 -190.988281 70.140625 -185.007812 67.328125 -179.0625 C 64.523438 -173.113281 61.921875 -167.066406 59.515625 -160.921875 C 52.171875 -142.347656 45.09375 -123.675781 38.28125 -104.90625 C 31.46875 -86.132812 25.117188 -67.195312 19.234375 -48.09375 Z M 19.234375 -48.09375 "/></g></g><g style="fill:#fff;fill-opacity:1;"><g transform="translate(169.96454, 239.67095)"><path style="stroke:none" d="M 11.25 -35.234375 C 15.207031 -36.929688 18.988281 -38.984375 22.59375 -41.390625 C 26.207031 -43.796875 30.03125 -45.882812 34.0625 -47.65625 C 38.101562 -49.425781 42.597656 -50.164062 47.546875 -49.875 C 41.742188 -45.488281 36.296875 -41.347656 31.203125 -37.453125 C 26.109375 -33.566406 21.015625 -29.785156 15.921875 -26.109375 C 13.085938 -23.984375 10.859375 -21.578125 9.234375 -18.890625 C 7.609375 -16.203125 6.441406 -13.085938 5.734375 -9.546875 C 2.472656 6.867188 -2.617188 22.859375 -9.546875 38.421875 C -12.097656 44.222656 -14.820312 49.914062 -17.71875 55.5 C -20.625 61.09375 -23.914062 66.4375 -27.59375 71.53125 C -30 74.789062 -32.546875 77.941406 -35.234375 80.984375 C -37.921875 84.023438 -40.679688 87.03125 -43.515625 90 C -47.191406 93.957031 -51.578125 96.503906 -56.671875 97.640625 C -58.085938 98.066406 -59.503906 98.382812 -60.921875 98.59375 C -62.335938 98.8125 -63.753906 98.847656 -65.171875 98.703125 C -73.085938 98.273438 -77.613281 94.101562 -78.75 86.1875 C -79.175781 82.925781 -79.140625 79.703125 -78.640625 76.515625 C -78.148438 73.335938 -77.335938 70.191406 -76.203125 67.078125 C -74.785156 63.535156 -73.296875 59.992188 -71.734375 56.453125 C -70.179688 52.921875 -68.414062 49.457031 -66.4375 46.0625 C -53 22.289062 -35.378906 1.910156 -13.578125 -15.078125 C -6.648438 -20.453125 -2.691406 -27.101562 -1.703125 -35.03125 C -1.273438 -38.5625 -0.671875 -42.0625 0.109375 -45.53125 C 0.890625 -49 1.628906 -52.5 2.328125 -56.03125 C 3.035156 -59.007812 4.03125 -62.054688 5.3125 -65.171875 C 6.582031 -68.566406 9.054688 -69.554688 12.734375 -68.140625 C 13.722656 -64.597656 13.96875 -61.019531 13.46875 -57.40625 C 12.976562 -53.800781 12.414062 -50.160156 11.78125 -46.484375 C 11.144531 -42.804688 10.96875 -39.054688 11.25 -35.234375 Z M -11.25 4.25 C -10.96875 3.539062 -10.71875 2.722656 -10.5 1.796875 C -10.289062 0.878906 -9.972656 -0.492188 -9.546875 -2.328125 C -11.390625 -0.628906 -12.875 0.710938 -14 1.703125 C -15.132812 2.691406 -16.195312 3.679688 -17.1875 4.671875 C -32.613281 21.222656 -45.773438 39.191406 -56.671875 58.578125 C -58.367188 61.691406 -59.890625 64.875 -61.234375 68.125 C -62.578125 71.382812 -63.890625 74.710938 -65.171875 78.109375 C -65.734375 79.953125 -66.082031 81.828125 -66.21875 83.734375 C -66.363281 85.648438 -66.4375 87.597656 -66.4375 89.578125 C -66.4375 90.566406 -66.148438 91.519531 -65.578125 92.4375 C -65.015625 93.363281 -64.523438 94.320312 -64.109375 95.3125 C -61.128906 94.882812 -58.648438 93.925781 -56.671875 92.4375 C -54.691406 90.957031 -52.925781 89.296875 -51.375 87.453125 C -48.820312 84.335938 -46.34375 81.148438 -43.9375 77.890625 C -41.53125 74.640625 -39.265625 71.316406 -37.140625 67.921875 C -31.335938 57.878906 -26.3125 47.550781 -22.0625 36.9375 C -17.820312 26.320312 -14.21875 15.425781 -11.25 4.25 Z M 7.421875 -84.0625 C 6.429688 -84.34375 5.832031 -84.976562 5.625 -85.96875 C 5.414062 -86.957031 5.453125 -87.945312 5.734375 -88.9375 C 8.273438 -96.007812 13.722656 -99.757812 22.078125 -100.1875 C 20.660156 -97.78125 19.421875 -95.550781 18.359375 -93.5 C 17.296875 -91.445312 16.269531 -89.429688 15.28125 -87.453125 C 14.851562 -86.890625 14.460938 -86.285156 14.109375 -85.640625 C 13.753906 -85.003906 13.367188 -84.617188 12.953125 -84.484375 C 12.097656 -84.203125 11.175781 -83.988281 10.1875 -83.84375 C 9.195312 -83.695312 8.273438 -83.769531 7.421875 -84.0625 Z M 7.421875 -84.0625 "/></g></g><g style="fill:#fff;fill-opacity:1;"><g transform="translate(202.437171, 239.67095)"><path style="stroke:none" d="M 50.515625 -21.859375 C 51.785156 -22.285156 52.671875 -22.460938 53.171875 -22.390625 C 53.671875 -22.316406 54.695312 -21.859375 56.25 -21.015625 C 54.550781 -19.171875 52.992188 -17.820312 51.578125 -16.96875 C 50.160156 -16.125 48.25 -15.5625 45.84375 -15.28125 C 43.4375 -15 39.898438 -14.785156 35.234375 -14.640625 C 33.253906 -12.804688 31.378906 -11.039062 29.609375 -9.34375 C 27.835938 -7.644531 26.101562 -5.945312 24.40625 -4.25 C 22.289062 -2.125 20.097656 -0.285156 17.828125 1.265625 C 15.566406 2.828125 13.160156 3.820312 10.609375 4.25 C 8.910156 4.53125 7.210938 4.632812 5.515625 4.5625 C 3.816406 4.488281 2.191406 4.242188 0.640625 3.828125 C -4.734375 2.128906 -6.785156 -2.679688 -5.515625 -10.609375 C -5.085938 -13.441406 -4.378906 -16.09375 -3.390625 -18.5625 C -2.398438 -21.039062 -1.269531 -23.414062 0 -25.6875 C 0.988281 -27.519531 2.046875 -29.359375 3.171875 -31.203125 C 4.304688 -33.046875 5.515625 -34.957031 6.796875 -36.9375 C 6.648438 -41.039062 7.351562 -44.644531 8.90625 -47.75 C 10.46875 -50.863281 12.453125 -53.769531 14.859375 -56.46875 C 17.265625 -59.007812 19.738281 -61.195312 22.28125 -63.03125 C 24.832031 -64.875 27.59375 -66.148438 30.5625 -66.859375 C 32.832031 -67.285156 34.742188 -67.425781 36.296875 -67.28125 C 43.367188 -66.289062 46.765625 -60.988281 46.484375 -51.375 C 46.347656 -47.550781 45.816406 -43.867188 44.890625 -40.328125 C 43.972656 -36.796875 42.804688 -33.328125 41.390625 -29.921875 C 40.960938 -28.515625 40.46875 -27.066406 39.90625 -25.578125 C 39.34375 -24.085938 38.707031 -22.566406 38 -21.015625 C 40.257812 -20.160156 42.414062 -19.910156 44.46875 -20.265625 C 46.519531 -20.617188 48.535156 -21.148438 50.515625 -21.859375 Z M 6.796875 -0.640625 C 8.628906 -0.921875 10.75 -1.910156 13.15625 -3.609375 C 15.5625 -5.304688 17.859375 -7.390625 20.046875 -9.859375 C 22.242188 -12.335938 23.984375 -14.851562 25.265625 -17.40625 C 23.984375 -18.25 22.707031 -19.0625 21.4375 -19.84375 C 20.164062 -20.625 18.960938 -21.507812 17.828125 -22.5 C 16.554688 -23.351562 15.351562 -24.34375 14.21875 -25.46875 C 13.09375 -26.601562 11.820312 -27.738281 10.40625 -28.875 C 8.5625 -26.46875 7.144531 -23.914062 6.15625 -21.21875 C 5.164062 -18.53125 4.242188 -15.773438 3.390625 -12.953125 C 3.109375 -11.671875 2.929688 -10.285156 2.859375 -8.796875 C 2.796875 -7.316406 2.765625 -5.867188 2.765625 -4.453125 C 2.898438 -1.484375 4.242188 -0.210938 6.796875 -0.640625 Z M 29.921875 -23.78125 C 32.617188 -28.300781 34.707031 -33.003906 36.1875 -37.890625 C 37.675781 -42.773438 38.347656 -47.972656 38.203125 -53.484375 C 38.203125 -55.046875 38.023438 -56.566406 37.671875 -58.046875 C 37.316406 -59.535156 36.4375 -60.707031 35.03125 -61.5625 C 32.050781 -60.28125 29.429688 -58.363281 27.171875 -55.8125 C 24.910156 -53.269531 22.859375 -50.234375 21.015625 -46.703125 C 20.304688 -45.140625 19.878906 -43.546875 19.734375 -41.921875 C 19.597656 -40.296875 19.742188 -38.5625 20.171875 -36.71875 C 21.015625 -33.46875 22.25 -30.816406 23.875 -28.765625 C 25.507812 -26.710938 27.523438 -25.050781 29.921875 -23.78125 Z M 29.921875 -23.78125 "/></g></g><g style="fill:#fff;fill-opacity:1;"><g transform="translate(248.493579, 239.67095)"><path style="stroke:none" d="M 83.421875 -48.828125 C 86.960938 -51.367188 90.78125 -51.648438 94.875 -49.671875 C 94.59375 -48.816406 94.347656 -48.035156 94.140625 -47.328125 C 93.929688 -46.628906 93.613281 -45.992188 93.1875 -45.421875 C 92.195312 -44.148438 91.132812 -42.984375 90 -41.921875 C 88.863281 -40.859375 87.734375 -39.691406 86.609375 -38.421875 C 79.109375 -30.921875 71.609375 -23.347656 64.109375 -15.703125 C 56.609375 -8.066406 49.109375 -0.5 41.609375 7 C 40.328125 8.28125 39.082031 9.59375 37.875 10.9375 C 36.675781 12.28125 35.515625 13.585938 34.390625 14.859375 C 34.390625 15.847656 34.457031 16.726562 34.59375 17.5 C 34.738281 18.28125 34.8125 19.097656 34.8125 19.953125 C 35.375 23.492188 35.085938 26.816406 33.953125 29.921875 C 32.828125 33.035156 31.132812 35.9375 28.875 38.625 C 26.882812 41.03125 24.648438 43.15625 22.171875 45 C 19.703125 46.84375 17.125 48.46875 14.4375 49.875 C 11.039062 51.863281 7.289062 52.644531 3.1875 52.21875 C -1.769531 51.65625 -3.960938 49.109375 -3.390625 44.578125 C -3.253906 43.015625 -2.9375 41.457031 -2.4375 39.90625 C -1.945312 38.351562 -1.273438 36.867188 -0.421875 35.453125 C 1.554688 32.617188 3.609375 29.785156 5.734375 26.953125 C 7.859375 24.128906 10.050781 21.300781 12.3125 18.46875 C 13.300781 17.195312 14.359375 15.957031 15.484375 14.75 C 16.617188 13.550781 17.828125 12.242188 19.109375 10.828125 C 17.691406 8.140625 16.238281 5.445312 14.75 2.75 C 13.269531 0.0625 11.890625 -2.625 10.609375 -5.3125 C 9.335938 -8.28125 8.132812 -11.25 7 -14.21875 C 5.875 -17.1875 4.742188 -20.226562 3.609375 -23.34375 C 2.617188 -26.175781 2.300781 -29.039062 2.65625 -31.9375 C 3.007812 -34.84375 3.679688 -37.710938 4.671875 -40.546875 C 6.503906 -45.921875 9.789062 -50.835938 14.53125 -55.296875 C 19.28125 -59.753906 24.660156 -63.21875 30.671875 -65.6875 C 36.679688 -68.164062 42.519531 -69.125 48.1875 -68.5625 C 50.59375 -68.414062 52.785156 -67.847656 54.765625 -66.859375 C 56.316406 -66.148438 57.410156 -65.050781 58.046875 -63.5625 C 58.691406 -62.082031 58.585938 -60.492188 57.734375 -58.796875 C 56.035156 -55.253906 53.769531 -51.785156 50.9375 -48.390625 C 50.375 -47.828125 49.523438 -47.507812 48.390625 -47.4375 C 47.265625 -47.363281 45.921875 -47.117188 44.359375 -46.703125 C 44.929688 -49.523438 45.425781 -52.066406 45.84375 -54.328125 C 46.269531 -56.597656 46.695312 -59.007812 47.125 -61.5625 C 45.851562 -61.5625 44.753906 -61.59375 43.828125 -61.65625 C 42.910156 -61.726562 42.023438 -61.625 41.171875 -61.34375 C 31.972656 -57.382812 25.039062 -50.945312 20.375 -42.03125 C 18.820312 -38.914062 17.796875 -35.726562 17.296875 -32.46875 C 16.804688 -29.21875 17.054688 -25.820312 18.046875 -22.28125 C 19.171875 -18.175781 20.582031 -14.210938 22.28125 -10.390625 C 23.976562 -6.578125 26.101562 -2.757812 28.65625 1.0625 C 30.070312 -0.207031 31.378906 -1.410156 32.578125 -2.546875 C 33.785156 -3.679688 34.953125 -4.8125 36.078125 -5.9375 C 42.023438 -11.601562 48.003906 -17.265625 54.015625 -22.921875 C 60.035156 -28.585938 66.085938 -34.175781 72.171875 -39.6875 C 73.867188 -41.382812 75.671875 -42.941406 77.578125 -44.359375 C 79.492188 -45.773438 81.441406 -47.265625 83.421875 -48.828125 Z M 22.078125 36.296875 C 22.785156 35.023438 23.421875 33.644531 23.984375 32.15625 C 24.546875 30.664062 24.40625 28.863281 23.5625 26.75 C 20.59375 29.570312 17.972656 32.429688 15.703125 35.328125 C 13.441406 38.234375 11.601562 41.457031 10.1875 45 C 13.019531 44.570312 15.390625 43.578125 17.296875 42.015625 C 19.210938 40.460938 20.804688 38.554688 22.078125 36.296875 Z M 22.078125 36.296875 "/></g></g></g></svg>